<svg id="Capa_1" enable-background="new 0 0 510.732 510.732" height="512" viewBox="0 0 510.732 510.732" width="512" xmlns="http://www.w3.org/2000/svg"><g><g><g><path d="m334.132 59.828c0-18.076-14.706-32.782-32.782-32.782h-90.969c-18.076 0-32.782 14.706-32.782 32.782v43.938h30v-43.938c0-1.534 1.248-2.782 2.782-2.782h90.969c1.534 0 2.782 1.248 2.782 2.782v43.938h30z" fill="#fbc56d"/></g><g fill="#fef056"><path d="m401.629 121.174h36.142v-26.427c0-6.29-5.099-11.39-11.39-11.39h-13.362c-6.29 0-11.39 5.099-11.39 11.39z"/><path d="m289.829 122.174h58.607v-27.427c0-6.29-5.099-11.39-11.39-11.39h-35.827c-6.29 0-11.39 5.099-11.39 11.39z"/><path d="m221.903 124.174h-58.607v-29.427c0-6.29 5.099-11.39 11.39-11.39h35.827c6.29 0 11.39 5.099 11.39 11.39z"/><path d="m110.104 127.174h-36.142v-32.427c0-6.29 5.099-11.39 11.39-11.39h13.362c6.29 0 11.39 5.099 11.39 11.39z"/></g><g><g id="XMLID_118_"><g><path d="m503.236 154.678v286.51c0 23.47-19.03 42.5-42.51 42.5h-410.72c-23.48 0-42.51-19.03-42.51-42.5v-286.51c0-23.48 19.03-42.5 42.51-42.5h410.72c23.48 0 42.51 19.02 42.51 42.5z" fill="#fdd79b"/></g></g><path d="m99.496 441.188v-286.51c0-23.48 19.03-42.5 42.51-42.5h-92c-23.48 0-42.51 19.02-42.51 42.5v286.51c0 23.47 19.03 42.5 42.51 42.5h92c-23.48 0-42.51-19.03-42.51-42.5z" fill="#fccd7f"/><g><g><path d="m191.998 399.596c3.91-1.391 5.952-5.689 4.561-9.6l-15.136-42.536c-1.391-3.91-5.689-5.952-9.6-4.561l-110 39.143c-3.91 1.391-5.952 5.689-4.561 9.6l15.136 42.536c1.391 3.91 5.689 5.952 9.6 4.561z" fill="#f47c7c"/></g><path d="m61.823 382.042c-3.91 1.391-5.952 5.689-4.561 9.6l15.136 42.536c1.391 3.91 5.689 5.952 9.6 4.561l17.499-6.227v-63.875z" fill="#ee6161"/><g><path d="m110.854 112.174h32.112v371.513h-32.112z" fill="#fbc56d"/></g><g><path d="m152.064 305.161h-50.308c-15.321 0-27.74-12.42-27.74-27.74v-36.98c0-15.321 12.42-27.74 27.74-27.74h50.308c15.321 0 27.74 12.42 27.74 27.74v36.98c.001 15.32-12.419 27.74-27.74 27.74z" fill="#fef48b"/></g><g><path d="m368.766 112.174h32.112v371.513h-32.112z" fill="#fbc56d"/></g><g><path d="m359.668 305.161h50.308c15.321 0 27.74-12.42 27.74-27.74v-36.98c0-15.321-12.42-27.74-27.74-27.74h-50.308c-15.321 0-27.74 12.42-27.74 27.74v36.98c0 15.32 12.42 27.74 27.74 27.74z" fill="#fef48b"/><g fill="#fef056"><path d="m118.7 277.42v-36.98c0-15.321 12.42-27.74 27.74-27.74h-44.684c-15.321 0-27.74 12.42-27.74 27.74v36.98c0 15.321 12.42 27.74 27.74 27.74h44.684c-15.32.001-27.74-12.419-27.74-27.74z"/><path d="m376.612 277.42v-36.98c0-15.321 12.42-27.74 27.74-27.74h-44.684c-15.321 0-27.74 12.42-27.74 27.74v36.98c0 15.321 12.42 27.74 27.74 27.74h44.684c-15.32.001-27.74-12.419-27.74-27.74z"/><path d="m407.716 274.379v-30.898c0-.432-.35-.781-.781-.781h-44.226c-.432 0-.781.35-.781.781v30.898c0 .432.35.781.781.781h44.226c.431.001.781-.349.781-.781z"/></g><path d="m362.657 242.7c-.403 0-.729.327-.729.729v31.002c0 .403.327.729.729.729h13.955v-32.46z" fill="#fee903"/></g></g><path d="m249.088 154.036-24.662 63.128c-.989 2.532 1.452 5.057 4.016 4.153l78.771-27.776c2.482-.875 2.885-4.217.681-5.656l-54.11-35.352c-1.686-1.103-3.962-.375-4.696 1.503z" fill="#f47c7c"/><circle cx="295.926" cy="399.205" fill="#ade194" r="36.976"/></g><path d="m104.016 274.097v-30.334c0-.587.476-1.063 1.063-1.063h43.662c.587 0 1.063.476 1.063 1.063v30.334c0 .587-.476 1.063-1.063 1.063h-43.662c-.587.001-1.063-.475-1.063-1.063z" fill="#fef056"/><path d="m105.079 242.7c-.587 0-1.063.476-1.063 1.063v30.334c0 .587.476 1.063 1.063 1.063h13.621v-32.46z" fill="#fee903"/></g><g><path d="m503.232 234.218c4.142 0 7.5-3.358 7.5-7.5v-72.042c0-27.572-22.431-50.003-50.003-50.003h-15.459v-9.926c0-10.416-8.474-18.89-18.89-18.89h-13.362c-10.416 0-18.89 8.474-18.89 18.89v9.926h-25.363-12.83v-9.926c0-8.832-6.101-16.246-14.304-18.304v-16.615c0-22.211-18.07-40.282-40.282-40.282h-30.003c-4.142 0-7.5 3.358-7.5 7.5s3.358 7.5 7.5 7.5h30.003c13.94 0 25.282 11.341 25.282 25.282v16.03h-15v-16.03c0-5.669-4.612-10.282-10.282-10.282h-90.969c-5.669 0-10.282 4.612-10.282 10.282v16.03h-15v-16.03c0-13.94 11.341-25.282 25.282-25.282h29.003c4.142 0 7.5-3.358 7.5-7.5s-3.358-7.5-7.5-7.5h-29.003c-22.211 0-40.282 18.07-40.282 40.282v16.616c-8.203 2.058-14.304 9.472-14.304 18.304v9.926h-12.83-25.363v-9.926c0-10.416-8.474-18.89-18.89-18.89h-13.359c-10.416 0-18.89 8.474-18.89 18.89v9.926h-16.459c-27.572 0-50.003 22.431-50.003 50.003v286.507c0 27.572 22.431 50.003 50.003 50.003h60.851 32.113 225.799 32.113 59.851c27.572 0 50.003-22.431 50.003-50.003v-182.503c0-4.142-3.358-7.5-7.5-7.5s-7.5 3.358-7.5 7.5v182.503c0 19.301-15.702 35.003-35.003 35.003h-52.351v-163.526h1.598c19.432 0 35.24-15.809 35.24-35.24v-36.98c0-19.432-15.809-35.241-35.24-35.241h-1.598v-85.526h52.351c19.301 0 35.003 15.702 35.003 35.003v72.042c-.001 4.141 3.357 7.499 7.499 7.499zm-143.564-29.018c-19.432 0-35.24 15.809-35.24 35.241v36.98c0 19.432 15.809 35.24 35.24 35.24h1.598v163.526h-210.799v-53.851l44.046-15.673c7.8-2.776 11.887-11.38 9.112-19.18l-15.136-42.536c-2.775-7.8-11.379-11.888-19.18-9.112l-18.842 6.705v-29.878h1.598c19.432 0 35.24-15.809 35.24-35.24v-36.98c0-19.432-15.809-35.241-35.24-35.241h-1.598v-85.526h210.799v85.526h-1.598zm-256.314 217.976-23.891 8.488-15.127-42.555 39.018-13.884zm-1.598-125.515c-11.161 0-20.24-9.08-20.24-20.24v-36.98c0-11.161 9.08-20.241 20.24-20.241h50.308c11.161 0 20.24 9.08 20.24 20.241v36.98c0 11.161-9.08 20.24-20.24 20.24zm48.711 60.802 23.891-8.487 15.126 42.555-39.017 13.884zm146.862-253.789v-9.926c0-2.145 1.745-3.89 3.89-3.89h35.827c2.145 0 3.89 1.745 3.89 3.89v9.926zm-.697-40.128v11.898c-8.203 2.058-14.303 9.472-14.303 18.304v9.926h-52.926v-9.926c0-8.832-6.101-16.246-14.303-18.304v-11.898zm-125.836 30.202c0-2.145 1.745-3.89 3.89-3.89h35.827c2.145 0 3.89 1.745 3.89 3.89v9.926h-43.607zm-89.334 0c0-2.145 1.745-3.89 3.89-3.89h13.362c2.145 0 3.89 1.745 3.89 3.89v9.926h-21.142zm-66.462 346.436v-286.507c0-19.301 15.702-35.003 35.003-35.003h23.959 29.392v26.62c0 4.142 3.358 7.5 7.5 7.5s7.5-3.358 7.5-7.5v-26.62h17.113v85.526h-17.113v-26.943c0-4.142-3.358-7.5-7.5-7.5s-7.5 3.358-7.5 7.5v26.943h-1.598c-19.432 0-35.24 15.809-35.24 35.241v36.98c0 19.432 15.809 35.24 35.24 35.24h1.598v46.643l-44.045 15.673c-3.779 1.344-6.808 4.08-8.529 7.703s-1.928 7.699-.583 11.477l15.136 42.536c1.345 3.778 4.081 6.807 7.703 8.528 2.045.971 4.234 1.46 6.433 1.46 1.696 0 3.399-.292 5.044-.877l18.843-6.705v37.087h-53.353c-19.301.001-35.003-15.702-35.003-35.002zm103.354 35.003v-163.526h17.113v163.526zm275.024 0h-17.113v-163.526h17.113zm36.838-235.747v36.98c0 11.161-9.08 20.24-20.24 20.24h-50.308c-11.161 0-20.24-9.08-20.24-20.24v-36.98c0-11.161 9.08-20.241 20.24-20.241h50.308c11.161.001 20.24 9.081 20.24 20.241zm-53.95-35.24v-85.526h17.112v85.526zm32.863-100.526v-9.926c0-2.145 1.745-3.89 3.89-3.89h13.362c2.145 0 3.89 1.745 3.89 3.89v9.926z"/><path d="m157.305 275.161v-32.461c0-4.142-3.358-7.5-7.5-7.5h-45.789c-4.142 0-7.5 3.358-7.5 7.5v32.461c0 4.142 3.358 7.5 7.5 7.5h45.789c4.142 0 7.5-3.358 7.5-7.5zm-15-7.5h-30.789v-17.461h30.789z"/><path d="m354.428 242.7v32.461c0 4.142 3.358 7.5 7.5 7.5h45.789c4.142 0 7.5-3.358 7.5-7.5v-32.461c0-4.142-3.358-7.5-7.5-7.5h-45.789c-4.142 0-7.5 3.358-7.5 7.5zm15 7.5h30.789v17.461h-30.789z"/><path d="m316.758 191.82c.489-4.063-1.335-7.977-4.761-10.214l-54.109-35.351c-2.704-1.767-6.019-2.215-9.095-1.231s-5.515 3.274-6.69 6.283v.001l-24.662 63.128c-1.538 3.937-.668 8.269 2.27 11.308 2.063 2.134 4.8 3.27 7.627 3.27 1.198 0 2.413-.204 3.599-.622l78.771-27.776c3.86-1.364 6.561-4.733 7.05-8.796zm-81.913 19.286 19.293-49.385 42.33 27.655z"/><path d="m251.45 399.206c0 24.524 19.952 44.477 44.477 44.477s44.477-19.952 44.477-44.477-19.952-44.477-44.477-44.477-44.477 19.952-44.477 44.477zm73.953 0c0 16.253-13.223 29.477-29.477 29.477s-29.477-13.223-29.477-29.477 13.223-29.477 29.477-29.477 29.477 13.223 29.477 29.477z"/></g></g></svg>