<svg id="Capa_1" enable-background="new 0 0 512.391 512.391" height="512" viewBox="0 0 512.391 512.391" width="512" xmlns="http://www.w3.org/2000/svg"><g><g><path d="m455.624 0h-243.726l116.926 419.284h126.801c20.198 0 36.571-16.374 36.571-36.571v-346.142c0-20.197-16.374-36.571-36.572-36.571z" fill="#b9f0ff"/><path d="m211.898 92.716v-92.716l116.925 92.716-58.462 20z" fill="#ffb357"/><path d="m475.624 0h-75.881c20.198 0 36.571 16.374 36.571 36.571v346.141c0 20.198-16.374 36.571-36.571 36.571h75.881c20.198 0 36.571-16.374 36.571-36.571v-346.141c.001-20.197-16.373-36.571-36.571-36.571z" fill="#7ce3ff"/><path d="m293.323 512h-257.627c-19.606 0-35.5-15.894-35.5-35.5v-348.284c0-19.606 15.894-35.5 35.5-35.5h293.128v383.784c-.001 19.606-15.894 35.5-35.501 35.5z" fill="#fce3a0"/><g><path d="m469.466 96.55v6.14l-33.15 55.54-10.33 17.31-70.79-22.37v-56.62c0-9.65 7.9-17.55 17.55-17.55h79.15c9.67 0 17.57 7.9 17.57 17.55z" fill="#fff"/><path d="m469.466 102.69v63.48c0 9.66-7.9 17.56-17.57 17.56h-58.36l14.83-46.44 27.95-15.83z" fill="#ffb357"/><path d="m469.466 159v7.17c0 9.66-7.9 17.56-17.57 17.56h-79.15c-9.65 0-17.55-7.9-17.55-17.56v-13l24.17-14.43c7.83-4.67 17.34-5.6 25.92-2.55l31.03 11.03z" fill="#ffce71"/></g><g fill="#7ce3ff"><path d="m454.196 265.5-17.88 7.58-74.79.25c-4.14 0-7.5-3.35-7.5-7.5 0-4.14 3.36-7.5 7.5-7.5l74.79-.25z"/><path d="m455.969 220.5-19.654 7.58-74.79.25c-4.14 0-7.5-3.35-7.5-7.5 0-4.14 3.36-7.5 7.5-7.5l74.79-.25z"/><path d="m453.006 310.705-16.69 7.375-74.79.25c-4.14 0-7.5-3.35-7.5-7.5 0-4.14 3.36-7.5 7.5-7.5l74.79-.25z"/></g><g><g><ellipse cx="88.819" cy="451.741" fill="#ffa1ac" rx="28.919" ry="23.03"/></g><g fill="#303646"><path d="m105.673 405.416c-11.726 0-21.265 9.54-21.265 21.265 0 4.142 3.357 7.5 7.5 7.5s7.5-3.358 7.5-7.5c0-3.455 2.811-6.265 6.265-6.265s6.265 2.811 6.265 6.265c0 4.142 3.357 7.5 7.5 7.5s7.5-3.358 7.5-7.5c0-11.726-9.539-21.265-21.265-21.265z"/><path d="m176.144 437.841c-2.261 2.593-5.521 4.08-8.948 4.08s-6.688-1.487-8.948-4.08c-2.721-3.122-7.459-3.446-10.581-.726-3.123 2.722-3.447 7.459-.726 10.582 5.109 5.862 12.492 9.224 20.255 9.224s15.146-3.362 20.255-9.224c2.722-3.123 2.397-7.86-.726-10.582s-7.861-2.396-10.581.726z"/></g></g></g><g fill="#55dafe"><path d="m469.696 310.5c0 4.14-3.36 7.5-7.5 7.5l-25.88.08v-15l25.88-.08c4.14 0 7.5 3.36 7.5 7.5z"/><path d="m469.696 265.5c0 4.14-3.36 7.5-7.5 7.5l-25.88.08v-15l25.88-.08c4.14 0 7.5 3.36 7.5 7.5z"/><path d="m462.196 228-25.88.08v-15l25.88-.08c4.14 0 7.5 3.36 7.5 7.5s-3.36 7.5-7.5 7.5z"/></g><path d="m216.566 92.716c20.198 0 36.571 16.374 36.571 36.571v346.533c0 20.198-16.374 36.571-36.571 36.571h75.881c20.198 0 36.571-16.374 36.571-36.571v-383.104z" fill="#ffce71"/><ellipse cx="245.572" cy="451.741" fill="#ffa1ac" rx="28.92" ry="23.03"/><path d="m228.718 405.416c-11.726 0-21.265 9.54-21.265 21.265 0 4.142 3.357 7.5 7.5 7.5s7.5-3.358 7.5-7.5c0-3.455 2.811-6.265 6.265-6.265s6.265 2.811 6.265 6.265c0 4.142 3.357 7.5 7.5 7.5s7.5-3.358 7.5-7.5c0-11.726-9.539-21.265-21.265-21.265z" fill="#303646"/><path d="m257.226 227.155c0 51.206-41.51 154.527-92.716 154.527s-92.717-103.321-92.717-154.527 41.511-92.716 92.716-92.716 92.717 41.51 92.717 92.716z" fill="#ea5b70"/><circle cx="164.51" cy="227.155" fill="#fff" r="55.63"/></g></svg>