<svg id="Capa_1" enable-background="new 0 0 512 512" height="512" viewBox="0 0 512 512" width="512" xmlns="http://www.w3.org/2000/svg"><g><g><g><path d="m271.968 391.469-15.968 20.603-15.968-20.603v-56.145l15.968-20.604 15.968 20.604z" fill="#d6948c"/></g></g><g><g><path d="m271.968 213.763-16.016 20.603-15.92-20.603v-46.359l15.968-20.603 15.968 20.603z" fill="#d6948c"/></g></g><g><g><path d="m271.968 45.843-15.968 20.604-15.968-20.604v-29.875c0-8.819 7.149-15.968 15.968-15.968 8.819 0 15.968 7.149 15.968 15.968z" fill="#d6948c"/></g></g><g><g><path d="m118.986 230.761c0-9.388 7.61-16.998 16.998-16.998h221.041l45.003 60.781-42.179 60.781h-223.865c-9.388 0-16.998-7.61-16.998-16.998z" fill="#fce3a0"/></g></g><g><path d="m148.513 45.843c-12.321 0-24.148 4.841-32.933 13.479l-37.124 36.505c-6.034 5.933-6.034 15.66 0 21.593l37.124 36.505c8.785 8.638 20.612 13.479 32.933 13.479h206.9c9.388 0 16.998-7.61 16.998-16.998v-87.565c0-9.388-7.61-16.998-16.998-16.998z" fill="#ff8e9e"/></g><g><path d="m376.016 45.843h-61.811c9.388 0 16.998 7.61 16.998 16.998v87.565c0 9.388-7.61 16.998-16.998 16.998h61.811c9.388 0 16.998-7.61 16.998-16.998v-87.565c0-9.388-7.61-16.998-16.998-16.998z" fill="#ea5b70"/></g><g><g><g><path d="m60.266 512c-33.284 0-60.266-26.982-60.266-60.266 0-33.284 26.982-60.266 60.266-60.266h381.167c33.284 0 60.266 26.982 60.266 60.266 0 33.284-26.982 60.266-60.266 60.266z" fill="#70dcba"/></g></g></g><g><g><path d="m451.734 391.469h-61.811c33.284 0 60.266 26.982 60.266 60.266 0 33.284-26.982 60.266-60.266 60.266h61.811c33.284-.001 60.266-26.983 60.266-60.267 0-33.283-26.982-60.265-60.266-60.265z" fill="#30cd9c"/></g></g><g><g><path d="m433.544 263.747-37.124-36.505c-8.785-8.638-20.612-13.479-32.933-13.479h-6.462c8.458 19.734 13.141 41.47 13.141 64.3 0 20.147-3.647 39.442-10.317 57.261h3.638c12.321 0 24.148-4.841 32.933-13.479l37.124-36.505c6.033-5.933 6.033-15.66 0-21.593z" fill="#ffce71"/></g></g><g><g><path d="m314.72 264.241h-117.44c-4.268 0-7.726-3.459-7.726-7.726s3.459-7.726 7.726-7.726h117.44c4.268 0 7.726 3.459 7.726 7.726.001 4.267-3.458 7.726-7.726 7.726z" fill="#ffce71"/></g><g><path d="m296.088 300.298h-80.175c-4.268 0-7.726-3.459-7.726-7.726s3.459-7.726 7.726-7.726h80.175c4.268 0 7.726 3.459 7.726 7.726s-3.459 7.726-7.726 7.726z" fill="#ffce71"/></g><g><path d="m296.088 132.378h-80.175c-4.268 0-7.726-3.459-7.726-7.726s3.459-7.726 7.726-7.726h80.175c4.268 0 7.726 3.459 7.726 7.726s-3.459 7.726-7.726 7.726z" fill="#ea5b70"/></g><g><path d="m314.72 96.322h-117.44c-4.268 0-7.726-3.459-7.726-7.726s3.459-7.726 7.726-7.726h117.44c4.268 0 7.726 3.459 7.726 7.726s-3.458 7.726-7.726 7.726z" fill="#ea5b70"/></g></g><g><g><ellipse cx="177.623" cy="461.41" fill="#ffa1ac" rx="28.919" ry="23.03"/></g><g><ellipse cx="334.377" cy="461.41" fill="#ffa1ac" rx="28.92" ry="23.03"/></g><g><g><path d="m208.242 443.849c-4.143 0-7.5-3.358-7.5-7.5 0-3.455-2.811-6.265-6.265-6.265s-6.265 2.811-6.265 6.265c0 4.142-3.357 7.5-7.5 7.5s-7.5-3.358-7.5-7.5c0-11.726 9.539-21.265 21.265-21.265s21.265 9.54 21.265 21.265c0 4.142-3.357 7.5-7.5 7.5z" fill="#303646"/></g><g><path d="m331.287 443.849c-4.143 0-7.5-3.358-7.5-7.5 0-3.455-2.811-6.265-6.265-6.265s-6.265 2.811-6.265 6.265c0 4.142-3.357 7.5-7.5 7.5s-7.5-3.358-7.5-7.5c0-11.726 9.539-21.265 21.265-21.265s21.265 9.54 21.265 21.265c0 4.142-3.357 7.5-7.5 7.5z" fill="#303646"/></g><g><path d="m256 466.589c-7.763 0-15.146-3.362-20.255-9.224-2.722-3.122-2.397-7.86.726-10.582 3.122-2.721 7.861-2.396 10.581.726 2.261 2.593 5.521 4.08 8.948 4.08s6.688-1.487 8.948-4.08c2.721-3.123 7.458-3.448 10.581-.726s3.447 7.459.726 10.582c-5.109 5.863-12.492 9.224-20.255 9.224z" fill="#303646"/></g></g></g></g></svg>