<svg width="512" height="912" viewBox="0 0 512 912" fill="none" xmlns="http://www.w3.org/2000/svg">
<path d="M198.537 460.77C192.75 492.367 181.587 527.307 160.195 532.252C159.786 456.638 154.809 385.776 145.572 324.068L154.622 301.632L154.69 301.637L167.954 291.406C181.403 338.617 191.756 395.949 198.537 460.77V460.77Z" fill="#F57C00"/>
<path d="M213.096 753.199L213.079 753.446C211.135 752.815 209.089 752.673 207.042 752.531C190.98 751.386 174.576 755.646 158.044 765.257C160.796 686.421 161.595 608.454 160.432 532.237C181.818 527.271 192.948 492.32 198.704 460.719C208.355 550.981 213.218 649.803 213.096 753.199V753.199Z" fill="#FF9801"/>
<path d="M198.704 460.719C194.853 481.68 189.417 499.17 183.201 510.597C189.431 586.871 192.598 667.957 192.625 751.879L192.608 752.126C190.671 751.396 188.625 751.254 186.578 751.112C177.274 750.527 167.852 751.745 158.354 754.761C158.247 758.276 158.162 761.668 158.044 765.257C174.576 755.646 190.98 751.386 207.042 752.532C209.089 752.673 211.135 752.815 213.079 753.446L213.096 753.199C213.218 649.803 208.355 550.981 198.704 460.719V460.719Z" fill="#F57C00"/>
<path d="M298.257 671.77C288.814 706.154 278.375 745.478 267.055 789.768C260.212 769.038 251.994 753.377 242.495 742.964L242.56 742.656C258.49 688.226 274.92 636.284 291.619 587.563C286.826 622.296 284.903 661.507 298.257 671.77V671.77Z" fill="#FF9801"/>
<path d="M366.164 455.635C342.608 518.77 319.505 592.302 298.257 671.77C284.903 661.507 286.826 622.296 291.619 587.563C314.253 520.995 337.309 462.922 359.76 415.932L366.056 429.841L366.164 455.635Z" fill="#F57C00"/>
<path d="M503.933 859.19V889.083C503.933 893.721 500.113 897.48 495.4 897.48H17.5333C12.8205 897.48 9 893.721 9 889.083V859.19C9.01341 856.839 9.99941 854.595 11.7307 852.976L36.2213 830.64C48.8235 819.275 68.1632 819.275 80.7653 830.64L85.7147 835.174C98.2945 846.595 117.679 846.595 130.259 835.174L135.208 830.64C147.788 819.219 167.172 819.219 179.752 830.64L184.701 835.174C197.281 846.595 216.665 846.595 229.245 835.174L234.195 830.64C246.775 819.219 266.159 819.219 278.739 830.64L283.688 835.174C296.268 846.595 315.652 846.595 328.232 835.174L333.181 830.64C345.761 819.219 365.145 819.219 377.725 830.64L382.675 835.174C395.255 846.595 414.639 846.595 427.219 835.174L432.168 830.64C444.77 819.275 464.11 819.275 476.712 830.64L501.203 852.976C502.934 854.595 503.92 856.839 503.933 859.19V859.19Z" fill="#00BCD4"/>
<path d="M478.333 830.304V889.083C478.333 893.721 474.513 897.48 469.8 897.48H495.4C500.113 897.48 503.933 893.721 503.933 889.083V859.19C503.92 856.839 502.934 854.595 501.203 852.976L478.333 830.304Z" fill="#00838F"/>
<path d="M450.685 822.327C424.092 792.666 389.413 771.13 350.76 760.273C334.673 755.25 318.168 751.626 301.437 749.441C289.059 747.643 276.573 746.661 264.061 746.502C261.587 746.334 259.027 746.334 256.467 746.334C251.628 746.334 246.824 746.46 242.062 746.67C253.367 746.924 264.646 747.849 275.837 749.441C292.568 751.626 309.073 755.25 325.16 760.273C372.674 775.043 410.869 800.671 432.68 832.311L450.685 822.327Z" fill="#FEC108"/>
<path d="M355.4 432.105L355.379 432.187L343.423 425.65L249.36 374.384C249.36 374.384 284.266 350.756 321.368 371.038C332.916 377.237 342.238 386.828 348.026 398.468C353.172 408.959 355.7 420.494 355.4 432.105V432.105Z" fill="#60A917"/>
<path d="M364.04 423.093C363.975 423.085 363.91 423.098 363.854 423.131C361.367 426.342 358.601 429.332 355.587 432.068L355.565 432.149C355.51 432.184 355.444 432.197 355.379 432.187L355.4 432.105C355.7 420.494 353.172 408.959 348.026 398.468L329.606 313.986C354.125 320.199 373.111 339.477 378.687 363.822C383.003 384.814 377.635 406.536 364.04 423.093V423.093Z" fill="#549414"/>
<path d="M424.795 530.103L361.424 440.726L355.379 432.187C355.444 432.197 355.51 432.184 355.565 432.149C368.3 430.56 381.261 432.269 393.175 437.108L393.34 437.151C404.419 441.746 413.928 449.411 420.708 459.21C445.031 493.493 424.795 530.103 424.795 530.103Z" fill="#60A917"/>
<path d="M420.708 459.21C413.928 449.411 404.419 441.746 393.34 437.151L393.175 437.108C386.148 434.217 378.706 432.453 371.131 431.882C381.129 436.513 389.702 443.699 395.952 452.688C406.581 467.76 410.406 486.464 406.511 504.315L424.795 530.103C424.795 530.103 445.031 493.493 420.708 459.21Z" fill="#549414"/>
<path d="M477.071 447.922L393.34 437.151L393.175 437.108C381.261 432.269 368.3 430.56 355.565 432.149L355.587 432.068C358.601 429.332 361.368 426.342 363.854 423.131C363.91 423.098 363.975 423.085 364.04 423.093C379.616 408.305 401.132 401.203 422.708 403.728C447.754 407.227 468.78 424.319 477.071 447.922Z" fill="#549414"/>
<path d="M300.6 273.945L177.976 303.922L162.36 307.701V307.617L162.445 307.533C165.513 294.309 171.876 282.045 180.963 271.846L181.048 271.678C191.145 260.288 204.597 252.276 219.533 248.754C267.917 236.998 300.6 273.945 300.6 273.945V273.945Z" fill="#60A917"/>
<path d="M227.299 176.998L181.048 266.678L180.963 266.846C171.876 277.045 165.513 289.31 162.445 302.533L162.36 302.617C162.36 302.533 162.275 302.533 162.275 302.449C159.611 298.495 157.325 294.307 155.448 289.938C155.448 289.938 155.448 289.854 155.277 289.854C144.775 267.163 145.15 241.036 156.301 218.647C170.159 192.763 197.569 176.683 227.299 176.998Z" fill="#549414"/>
<path d="M162.36 302.701L152.973 310.51L53.9013 392.465C53.9013 392.465 41.8693 345.19 79.8427 313.785C90.541 304.794 103.627 298.996 117.56 297.075H117.816L117.901 296.991C132.973 295.058 148.297 297.026 162.36 302.701V302.701Z" fill="#60A917"/>
<path d="M162.36 302.617V302.701H162.275C162.091 302.586 161.889 302.501 161.677 302.449C161.441 302.354 161.213 302.242 160.995 302.113C158.536 301.15 156.03 300.309 153.485 299.594C153.277 299.578 153.074 299.521 152.888 299.426C150.669 298.838 148.109 298.251 145.208 297.747C144.355 297.579 143.416 297.411 142.477 297.243C134.339 296.01 126.064 295.925 117.901 296.991L117.816 297.075H117.56L19 284.312C35.6288 260.021 64.7308 247.001 94.264 250.64C119.514 254.136 141.875 268.507 155.277 289.854C155.448 289.854 155.448 289.938 155.448 289.938C157.325 294.307 159.611 298.495 162.275 302.449C162.275 302.533 162.36 302.533 162.36 302.617V302.617Z" fill="#549414"/>
<path d="M424.267 125.955C457.256 125.955 484 99.6389 484 67.1761C484 34.7133 457.256 8.39702 424.267 8.39702C391.277 8.39702 364.533 34.7133 364.533 67.1761C364.533 99.6389 391.277 125.955 424.267 125.955Z" fill="#FFDF00"/>
<path d="M424.267 8.39701C419.962 8.4031 415.67 8.86764 411.467 9.78252C438.828 15.7342 458.307 39.6019 458.307 67.1761C458.307 94.7504 438.828 118.618 411.467 124.57C433.834 129.435 457.058 121.285 471.249 103.59C485.44 85.8955 488.098 61.7735 478.091 41.4972C468.083 21.2209 447.174 8.36208 424.267 8.39701V8.39701Z" fill="#FEC108"/>
<path d="M424.267 0C386.564 0 356 30.0758 356 67.1761C356 104.276 386.564 134.352 424.267 134.352C461.969 134.352 492.533 104.276 492.533 67.1761C492.491 30.093 461.952 0.0416482 424.267 0ZM424.267 117.558C395.99 117.558 373.067 95.0014 373.067 67.1761C373.067 39.3509 395.99 16.794 424.267 16.794C452.544 16.794 475.467 39.3509 475.467 67.1761C475.438 94.9899 452.532 117.53 424.267 117.558Z" fill="#D7C52B"/>
<path d="M450.685 822.327C443.771 823.089 437.285 826.001 432.168 830.64L427.219 835.174C414.639 846.595 395.255 846.595 382.675 835.174L377.725 830.64C365.145 819.219 345.761 819.219 333.181 830.64L328.232 835.174C315.652 846.595 296.268 846.595 283.688 835.174L278.739 830.64C266.159 819.219 246.775 819.219 234.195 830.64L229.245 835.174C216.665 846.595 197.281 846.595 184.701 835.174L179.752 830.64C167.172 819.219 147.788 819.219 135.208 830.64L130.259 835.174C117.679 846.595 98.2945 846.595 85.7147 835.174L80.7653 830.64C75.6484 826.001 69.1618 823.089 62.248 822.327C90.5787 788.319 138.877 762.456 196.563 751.792C216.316 748.15 236.37 746.323 256.467 746.334C259.027 746.334 261.587 746.334 264.061 746.502C276.573 746.661 289.059 747.643 301.437 749.441C318.168 751.626 334.672 755.25 350.76 760.273C389.413 771.13 424.092 792.666 450.685 822.327V822.327Z" fill="#FFDF00"/>
</svg>
