<svg width="512" height="512" viewBox="0 0 512 512" fill="none" xmlns="http://www.w3.org/2000/svg">
<g clip-path="url(#clip0)">
<path d="M503.467 464.555V494.933C503.467 499.646 499.646 503.467 494.933 503.467H17.0667C12.3538 503.467 8.53333 499.646 8.53333 494.933V464.555C8.54674 462.166 9.53274 459.886 11.264 458.24L35.7547 435.541C48.3568 423.992 67.6965 423.992 80.2987 435.541L85.248 440.149C97.8279 451.756 117.212 451.756 129.792 440.149L134.741 435.541C147.321 423.935 166.705 423.935 179.285 435.541L184.235 440.149C196.815 451.756 216.199 451.756 228.779 440.149L233.728 435.541C246.308 423.935 265.692 423.935 278.272 435.541L283.221 440.149C295.801 451.756 315.185 451.756 327.765 440.149L332.715 435.541C345.295 423.935 364.679 423.935 377.259 435.541L382.208 440.149C394.788 451.756 414.172 451.756 426.752 440.149L431.701 435.541C444.303 423.992 463.643 423.992 476.245 435.541L500.736 458.24C502.467 459.886 503.453 462.166 503.467 464.555V464.555Z" fill="#00BCD4"/>
<path d="M477.867 435.2V494.933C477.867 499.646 474.046 503.467 469.333 503.467H494.933C499.646 503.467 503.467 499.646 503.467 494.933V464.555C503.453 462.166 502.467 459.886 500.736 458.24L477.867 435.2Z" fill="#00838F"/>
<path d="M450.219 427.093C443.305 427.868 436.818 430.828 431.701 435.541L426.752 440.149C414.172 451.756 394.788 451.756 382.208 440.149L377.259 435.541C364.679 423.935 345.295 423.935 332.715 435.541L327.765 440.149C315.185 451.756 295.801 451.756 283.221 440.149L278.272 435.541C265.692 423.935 246.308 423.935 233.728 435.541L228.779 440.149C216.199 451.756 196.815 451.756 184.235 440.149L179.285 435.541C166.705 423.935 147.321 423.935 134.741 435.541L129.792 440.149C117.212 451.756 97.8278 451.756 85.248 440.149L80.2986 435.541C75.1817 430.828 68.6951 427.868 61.7813 427.093C90.112 392.533 138.411 366.251 196.096 355.413C215.849 351.713 235.903 349.856 256 349.867C258.56 349.867 261.12 349.867 263.595 350.037C276.106 350.199 288.592 351.197 300.971 353.024C317.702 355.245 334.206 358.928 350.293 364.032C388.946 375.066 423.625 396.951 450.219 427.093V427.093Z" fill="#FFDF00"/>
<path d="M450.219 427.093C423.625 396.951 388.946 375.066 350.293 364.032C334.206 358.928 317.702 355.245 300.971 353.024C288.592 351.197 276.106 350.199 263.595 350.037C261.12 349.867 258.56 349.867 256 349.867C251.162 349.867 246.357 349.995 241.596 350.208C252.9 350.466 264.179 351.406 275.371 353.024C292.102 355.245 308.606 358.928 324.693 364.032C372.207 379.042 410.402 405.086 432.213 437.239L450.219 427.093Z" fill="#FEC108"/>
<path id="leaf5" id="shape6" d="M381.781 262.997V263.083L368.555 259.755L264.533 233.728C264.533 233.728 292.267 201.472 333.312 211.797C346.059 214.899 357.517 221.911 366.08 231.851C373.729 240.828 379.113 251.509 381.781 262.997V262.997Z" fill="#60A917"/>
<path id="leaf6" d="M387.84 251.904C387.775 251.913 387.715 251.943 387.669 251.989C386.083 255.789 384.17 259.443 381.952 262.912V262.997C381.908 263.046 381.847 263.076 381.781 263.083V262.997C379.113 251.509 373.729 240.828 366.08 231.851L326.741 153.6C352.034 153.358 375.306 167.387 386.901 189.867C396.423 209.377 396.767 232.114 387.84 251.904V251.904Z" fill="#549414"/>
<g id="leaf8">
<path d="M473.856 341.333L389.803 269.909L381.781 263.083C381.847 263.076 381.908 263.046 381.952 262.997C393.862 258.139 406.83 256.463 419.584 258.133H419.755C431.639 259.78 442.788 264.851 451.84 272.725C484.096 300.117 473.856 341.333 473.856 341.333Z" fill="#60A917"/>
<path d="M451.84 272.725C442.788 264.851 431.639 259.78 419.755 258.133H419.584C412.053 257.112 404.407 257.305 396.937 258.705C407.785 260.667 417.906 265.51 426.24 272.725C440.358 284.785 448.823 302.174 449.604 320.725L473.856 341.333C473.856 341.333 484.096 300.117 451.84 272.725Z" fill="#549414"/>
</g>
<path id="leaf7" d="M503.467 247.04L419.755 258.133H419.584C406.83 256.463 393.862 258.139 381.952 262.997V262.912C384.17 259.443 386.083 255.789 387.669 251.989C387.715 251.943 387.775 251.913 387.84 251.904C399.134 233.34 418.13 220.79 439.637 217.685C464.749 214.639 489.436 225.992 503.467 247.04Z" fill="#549414"/>
<g id="branch2">
<path d="M358.827 331.008C355.84 340.651 352.939 351.659 350.293 364.032C334.206 358.928 317.702 355.245 300.971 353.024V352.939C307.1 337.618 314.702 322.929 323.669 309.077C327.424 318.549 336.64 329.045 358.827 331.008V331.008Z" fill="#FF9801"/>
<path d="M389.803 269.909C375.446 287.968 364.907 308.754 358.827 331.008C336.64 329.045 327.424 318.549 323.669 309.077C335.663 290.162 350.85 273.473 368.555 259.755L381.781 263.083L389.803 269.909Z" fill="#F57C00"/>
</g>
<path id="leaf4" d="M290.133 161.707L167.509 192.171L151.893 196.011V195.925L151.979 195.84C155.046 182.402 161.41 169.938 170.496 159.573L170.581 159.403C180.679 147.829 194.13 139.686 209.067 136.107C257.451 124.16 290.133 161.707 290.133 161.707V161.707Z" fill="#60A917"/>
<path id="leaf3" d="M216.832 68.2667L170.581 159.403L170.496 159.573C161.41 169.938 155.046 182.402 151.979 195.84L151.893 195.925C151.893 195.84 151.808 195.84 151.808 195.755C149.144 191.737 146.859 187.48 144.981 183.04C144.981 183.04 144.981 182.955 144.811 182.955C134.308 159.895 134.684 133.345 145.835 110.592C159.692 84.2874 187.102 67.9469 216.832 68.2667Z" fill="#549414"/>
<path id="leaf1" d="M151.893 196.011L142.507 203.947L43.4347 287.232C43.4347 287.232 31.4027 239.189 69.376 207.275C80.0744 198.137 93.1601 192.246 107.093 190.293H107.349L107.435 190.208C122.507 188.244 137.83 190.244 151.893 196.011V196.011Z" fill="#60A917"/>
<path id="leaf2" d="M151.893 195.925V196.011H151.808C151.624 195.894 151.422 195.808 151.211 195.755C150.975 195.658 150.747 195.544 150.528 195.413C148.07 194.434 145.563 193.58 143.019 192.853C142.81 192.837 142.607 192.779 142.421 192.683C140.203 192.085 137.643 191.488 134.741 190.976C133.888 190.805 132.949 190.635 132.011 190.464C123.872 189.211 115.597 189.125 107.435 190.208L107.349 190.293H107.093L8.53333 177.323C25.1621 152.637 54.2641 139.406 83.7973 143.104C109.048 146.657 131.408 161.262 144.811 182.955C144.981 182.955 144.981 183.04 144.981 183.04C146.859 187.48 149.144 191.737 151.808 195.755C151.808 195.84 151.893 195.84 151.893 195.925V195.925Z" fill="#549414"/>
<g id="branch1">
<path d="M220.416 249.685C215.979 260.693 205.141 272.981 178.944 275.2C171.812 249.202 159.409 224.948 142.507 203.947L151.808 196.011H151.893L167.509 192.171C188.388 208.084 206.297 227.554 220.416 249.685V249.685Z" fill="#F57C00"/>
<path d="M263.595 349.952V350.037C261.12 349.867 258.56 349.867 256 349.867C235.903 349.856 215.849 351.713 196.096 355.413C192.714 328.229 186.975 301.39 178.944 275.2C205.141 272.981 215.979 260.693 220.416 249.685C240.227 280.504 254.816 314.382 263.595 349.952V349.952Z" fill="#FF9801"/>
<path d="M220.416 249.685C217.432 256.988 212.175 263.134 205.423 267.213C219.767 293.301 230.713 321.118 237.995 349.986V350.071C235.52 349.867 232.96 349.867 230.4 349.867C218.766 349.888 207.141 350.531 195.575 351.795C195.746 353.007 195.934 354.176 196.096 355.413C215.849 351.713 235.903 349.856 256 349.867C258.56 349.867 261.12 349.867 263.595 350.037V349.952C254.816 314.382 240.227 280.504 220.416 249.685V249.685Z" fill="#F57C00"/>
</g>
<g id="sun">
<path d="M443.733 128C476.723 128 503.467 101.256 503.467 68.2667C503.467 35.2768 476.723 8.53332 443.733 8.53332C410.744 8.53332 384 35.2768 384 68.2667C384 101.256 410.744 128 443.733 128Z" fill="#FFDF00"/>
<path d="M443.733 8.53332C439.428 8.5395 435.137 9.01159 430.933 9.94132C458.295 15.9896 477.774 40.2448 477.774 68.2667C477.774 96.2886 458.295 120.544 430.933 126.592C453.3 131.536 476.525 123.254 490.716 105.272C504.907 87.2899 507.565 62.7763 497.558 42.1709C487.55 21.5654 466.64 8.49782 443.733 8.53332V8.53332Z" fill="#FEC108"/>
<path d="M443.733 -1.33514e-05C406.031 -1.33514e-05 375.467 30.564 375.467 68.2667C375.467 105.969 406.031 136.533 443.733 136.533C481.436 136.533 512 105.969 512 68.2667C511.958 30.5816 481.418 0.042311 443.733 -1.33514e-05ZM443.733 119.467C415.456 119.467 392.533 96.5436 392.533 68.2667C392.533 39.9897 415.456 17.0667 443.733 17.0667C472.01 17.0667 494.933 39.9897 494.933 68.2667C494.905 96.5319 471.999 119.438 443.733 119.467Z" fill="#D7C52B"/>
</g>
</g>
<defs>
<clipPath id="clip0">
<rect width="512" height="512" fill="white"/>
</clipPath>
</defs>
</svg>
