<svg height="512" viewBox="0 0 60 60" width="512" xmlns="http://www.w3.org/2000/svg"><g id="Page-1" fill="none" fill-rule="evenodd"><g id="037---Island" fill-rule="nonzero" transform="translate(-1)"><path id="Shape" d="m60 54.44v3.56c0 .5522847-.4477153 1-1 1h-56c-.55228475 0-1-.4477153-1-1v-3.56c.00157151-.2799248.11711887-.547128.32-.74l2.87-2.66c1.47681225-1.3534352 3.74318775-1.3534352 5.22 0l.58.54c1.4742031 1.3601273 3.7457969 1.3601273 5.22 0l.58-.54c1.4742031-1.3601273 3.7457969-1.3601273 5.22 0l.58.54c1.4742031 1.3601273 3.7457969 1.3601273 5.22 0l.58-.54c1.4742031-1.3601273 3.7457969-1.3601273 5.22 0l.58.54c1.4742031 1.3601273 3.7457969 1.3601273 5.22 0l.58-.54c1.4742031-1.3601273 3.7457969-1.3601273 5.22 0l.58.54c1.4742031 1.3601273 3.7457969 1.3601273 5.22 0l.58-.54c1.4768123-1.3534352 3.7431877-1.3534352 5.22 0l2.87 2.66c.2028811.192872.3184285.4600752.32.74z" fill="#00bcd4"/><path id="Shape" d="m57 51v7c0 .5522847-.4477153 1-1 1h3c.5522847 0 1-.4477153 1-1v-3.56c-.0015715-.2799248-.1171189-.547128-.32-.74z" fill="#00838f"/><path id="Shape" d="m53.76 50.05c-.810213.0908201-1.5703621.4376163-2.17.99l-.58.54c-1.4742031 1.3601273-3.7457969 1.3601273-5.22 0l-.58-.54c-1.4742031-1.3601273-3.7457969-1.3601273-5.22 0l-.58.54c-1.4742031 1.3601273-3.7457969 1.3601273-5.22 0l-.58-.54c-1.4742031-1.3601273-3.7457969-1.3601273-5.22 0l-.58.54c-1.4742031 1.3601273-3.7457969 1.3601273-5.22 0l-.58-.54c-1.4742031-1.3601273-3.7457969-1.3601273-5.22 0l-.58.54c-1.4742031 1.3601273-3.7457969 1.3601273-5.22 0l-.58-.54c-.59963786-.5523837-1.35978703-.8991799-2.17-.99 3.32-4.05 8.98-7.13 15.74-8.4 2.3148125-.4336598 4.664917-.6512621 7.02-.65.3 0 .6 0 .89.02 1.4661673.0189501 2.9294287.1358773 4.38.35 1.9606694.2602252 3.8947435.6918784 5.78 1.29 4.5296369 1.2930101 8.5935537 3.8576851 11.71 7.39z" fill="#ffdf00"/><path id="Shape" d="m53.76 50.05c-3.1164463-3.5323149-7.1803631-6.0969899-11.71-7.39-1.8852565-.5981216-3.8193306-1.0297748-5.78-1.29-1.4505713-.2141227-2.9138327-.3310499-4.38-.35-.29-.02-.59-.02-.89-.02-.567 0-1.13.015-1.688.04 1.3247727.0302373 2.6465111.1404378 3.958.33 1.9606694.2602252 3.8947435.6918784 5.78 1.29 5.568 1.759 10.044 4.811 12.6 8.579z" fill="#fec108"/><path id="Shape" d="m45.74 30.82v.01l-1.55-.39-12.19-3.05s3.25-3.78 8.06-2.57c1.4938294.363517 2.8365269 1.1852199 3.84 2.35.8963499 1.0520473 1.5273277 2.3037152 1.84 3.65z" fill="#60a917"/><path id="Shape" d="m46.45 29.52c-.0075808.0010568-.0146061.0045695-.02.01-.1858599.4452568-.4100354.8735323-.67 1.28v.01c-.0051905.0057054-.0123214.0092708-.02.01v-.01c-.3126723-1.3462848-.9436501-2.5979527-1.84-3.65l-4.61-9.17c2.9640347-.0283959 5.6911801 1.6156279 7.05 4.25 1.1158594 2.28642 1.1561743 4.950867.11 7.27z" fill="#549414"/><path id="Shape" d="m56.53 40-9.85-8.37-.94-.8c.0076786-.0007292.0148095-.0042946.02-.01 1.3956764-.5692947 2.9154432-.7657271 4.41-.57h.02c1.3927263.1930187 2.6991794.7871769 3.76 1.71 3.78 3.21 2.58 8.04 2.58 8.04z" fill="#60a917"/><path id="Shape" d="m53.95 31.96c-1.0608206-.9228231-2.3672737-1.5169813-3.76-1.71h-.02c-.8825588-.1197097-1.7786057-.0970891-2.654.067 1.2712491.2299448 2.4573049.7974142 3.434 1.643 1.6545006 1.4131902 2.6464361 3.4510416 2.738 5.625l2.842 2.415s1.2-4.83-2.58-8.04z" fill="#549414"/><path id="Shape" d="m60 28.95-9.81 1.3h-.02c-1.4945568-.1957271-3.0143236.0007053-4.41.57v-.01c.2599646-.4064677.4841401-.8347432.67-1.28.0053939-.0054305.0124192-.0089432.02-.01 1.3235273-2.1755279 3.5496311-3.64615 6.07-4.01 2.9427533-.357004 5.8357687.9734736 7.48 3.44z" fill="#549414"/><path id="Shape" d="m43.05 38.79c-.35 1.13-.69 2.42-1 3.87-1.8852565-.5981216-3.8193306-1.0297748-5.78-1.29v-.01c.7182865-1.7953561 1.6091294-3.5167594 2.66-5.14.44 1.11 1.52 2.34 4.12 2.57z" fill="#ff9801"/><path id="Shape" d="m46.68 31.63c-1.6824304 2.1161902-2.9174055 4.5521192-3.63 7.16-2.6-.23-3.68-1.46-4.12-2.57 1.4055157-2.2166349 3.1852893-4.1723557 5.26-5.78l1.55.39z" fill="#f57c00"/><path id="Shape" d="m35 18.95-14.37 3.57-1.83.45v-.01l.01-.01c.3594616-1.5747853 1.1052079-3.0353482 2.17-4.25l.01-.02c1.1832966-1.356337 2.7596083-2.3105124 4.51-2.73 5.67-1.4 9.5 3 9.5 3z" fill="#60a917"/><path id="Shape" d="m26.41 8-5.42 10.68-.01.02c-1.0647921 1.2146518-1.8105384 2.6752147-2.17 4.25l-.01.01c0-.01-.01-.01-.01-.02-.3121862-.4708489-.5800012-.9696545-.8-1.49 0 0 0-.01-.02-.01-1.2307835-2.702247-1.186754-5.8136615.12-8.48 1.6239424-3.08256719 4.836036-4.9974691 8.32-4.96z" fill="#549414"/><path id="Shape" d="m18.8 22.97-1.1.93-11.61 9.76s-1.41-5.63 3.04-9.37c1.2537137-1.0707922 2.7871965-1.7612064 4.42-1.99h.03l.01-.01c1.7662508-.2301801 3.5619965.0041974 5.21.68z" fill="#60a917"/><path id="Shape" d="m18.8 22.96v.01h-.01c-.0215798-.0136772-.0452132-.0238058-.07-.03-.0276404-.0112899-.0543839-.0246617-.08-.04-.2880897-.1147674-.581798-.2148952-.88-.3-.0244277-.0019645-.0482217-.0087628-.07-.02-.26-.07-.56-.14-.9-.2-.1-.02-.21-.04-.32-.06-.9536969-.1468052-1.9234519-.1569068-2.88-.03l-.01.01h-.03l-11.55-1.52c1.94868975-2.8928218 5.35907241-4.4433472 8.82-4.01 2.9590398.4164114 5.5793668 2.1278697 7.15 4.67.02 0 .02.01.02.01.2199988.5203455.4878138 1.0191511.8 1.49 0 .01.01.01.01.02z" fill="#549414"/><path id="Shape" d="m26.83 29.26c-.52 1.29-1.79 2.73-4.86 2.99-.8357567-3.0466662-2.2892013-5.8888822-4.27-8.35l1.09-.93h.01l1.83-.45c2.4467005 1.8648499 4.5454859 4.1464327 6.2 6.74z" fill="#f57c00"/><path id="Shape" d="m31.89 41.01v.01c-.29-.02-.59-.02-.89-.02-2.355083-.0012621-4.7051875.2163402-7.02.65-.3963228-3.1856621-1.0688549-6.3308371-2.01-9.4 3.07-.26 4.34-1.7 4.86-2.99 2.3216497 3.6115956 4.0312918 7.5816143 5.06 11.75z" fill="#ff9801"/><path id="Shape" d="m26.83 29.26c-.3496586.8557264-.9657757 1.5759907-1.757 2.054 1.6809237 3.0572614 2.9636766 6.3170737 3.817 9.7v.01c-.29-.024-.59-.024-.89-.024-1.3633917.002452-2.7256745.0778933-4.081.226.02.142.042.279.061.424 2.3148125-.4336598 4.664917-.6512621 7.02-.65.3 0 .6 0 .89.02v-.01c-1.0287082-4.1683857-2.7383503-8.1384044-5.06-11.75z" fill="#f57c00"/><circle id="Oval" cx="53" cy="8" fill="#ffdf00" r="7"/><path id="Shape" d="m53 1c-.5044884.00072471-1.0074167.05604683-1.5.165 3.2064126.70878162 5.4891145 3.5511831 5.4891145 6.835s-2.2827019 6.1262184-5.4891145 6.835c2.6211486.579393 5.3427728-.3912156 7.0057888-2.4984637 1.663016-2.107248 1.9744743-4.97993184.8017312-7.39463475-1.172743-2.41470292-3.6231022-3.94606144-6.30752-3.94190155z" fill="#fec108"/><g fill="#000"><path id="Shape" d="m60.359 52.97-2.868-2.659c-.8974037-.8308244-2.0770687-1.2894639-3.3-1.283-2.9844645-3.2483297-6.7603965-5.6670762-10.959-7.02.6229588-3.1807657 1.8424287-6.2148502 3.594-8.942l9.055 7.7c.2644313.2245605.6263562.2960268.9562965.1888319.3299403-.107195.5807505-.3777339.6627035-.7148319.055-.222 1.3-5.474-2.9-9.043-.194-.164-.39-.3-.586-.444l6.116-.811c.3347755-.0446816.6243769-.2553303.7699914-.5600719.1456145-.3047417.1275644-.6623952-.0479914-.9509281-1.8367648-2.8233171-5.1298869-4.3431299-8.47-3.909-1.512933.2002-2.9500314.7821285-4.176 1.691.0574198-1.5290463-.2768188-3.0474048-.971-4.411-1.5260327-3.0012859-4.6336735-4.8658704-8-4.8-.3379599.0163915-.6447096.20257-.8152481.4948065-.1705386.2922365-.1817332.6508903-.0297519.9531935l2.86 5.69c-.3112624-.1156782-.6287597-.2138319-.951-.294-5.343-1.338-8.914 2.715-9.064 2.888-.2260859.2629016-.2998445.6241587-.1949121.954645.1049325.3304864.3735777.5830271.7099121.667355l10.289 2.581c-2.7625385 2.6346476-4.9426697 5.8186611-6.4 9.347-.984-.117-1.98-.2-2.988-.247-2.209-7.975-5.9-13.508-9.851-17.028l12.436-3.087c.3380442-.0837446.6081716-.3373295.7130836-.6694146.1049119-.3320851.0294959-.6948337-.1990836-.9575854-.173-.2-4.3-4.847-10.5-3.314-.5261832.1336665-1.0408259.3092269-1.539.525l3.589-7.051c.1551966-.30288877.145692-.66391568-.0252264-.95821903-.1709184-.29430336-.4797835-.48147486-.8197736-.49678097-2.8651795-.05832489-5.6222854 1.09347724-7.5945038 3.1726621-1.9722185 2.0791849-2.9769293 4.8932278-2.7674962 7.7513379-1.4915144-1.1644859-3.268407-1.9070163-5.145-2.15-3.85245092-.4925439-7.65078086 1.2430603-9.8 4.478-.17835772.2888847-.19796017.6485316-.05205692.95509.14590325.3065585.4373806.5181502.77405692.56191l7.632 1c-.35490115.2297994-.69552741.4809278-1.02.752-4.871 4.1-3.422 10.132-3.358 10.387.08390054.3343193.33406147.6018631.662.708.09953675.0320717.20342467.0485993.308.049.23530641-.0002426.46299063-.0834553.643-.235l10.825-9.106c3.057 4.082 4.549 10.512 5.289 15.548-6.231 1.351-11.624 4.222-15.04 8.156-1.22293129-.0064639-2.40259625.4521756-3.3 1.283l-2.871 2.659c-.40752151.3791016-.63931292.910411-.64 1.467v3.563c0 1.1045695.8954305 2 2 2h56c1.1045695 0 2-.8954305 2-2v-3.563c-.0006871-.556589-.2324785-1.0878984-.64-1.467zm-4.6439435-14.97-7.9150565-6.73c1.9611726-.3757591 3.9869336.1582651 5.508 1.452 1.5356179 1.3226488 2.4151741 3.2513142 2.4070565 5.278zm-3.0690565-11.495c1.9645285-.2799046 3.9501056.3451845 5.4 1.7l-7.846 1.036c-.767996-.0962511-1.545004-.0962511-2.313 0 1.1680455-1.4986269 2.8761803-2.4806519 4.759-2.736zm-7.2-3.8c.8584793 1.7235445.9990728 3.7170244.391 5.544-.3128368-.596808-.6897243-1.1577803-1.124-1.673l-3.7-7.372c1.9317044.4341247 3.5630094 1.7194622 4.437 3.496zm-5.631 3.087c1.9363895.4789651 3.5499146 1.8124691 4.385 3.624l-10.085-2.53c1.6519392-1.1763035 3.7332623-1.5773158 5.704-1.099zm5.453 5.96.025.021c-1.263838 1.8130732-2.249093 3.8051556-2.923 5.91-.9167491-.123346-1.7399766-.6248982-2.27-1.383 1.2014043-1.7958277 2.6645817-3.4019185 4.341-4.765zm-6.289 6.37c.7661461.7597701 1.740681 1.2748814 2.8 1.48-.1633333.5853333-.3183333 1.1883333-.465 1.809-1.1855582-.3324597-2.3870731-.6051369-3.6-.817.3906667-.8573333.8136667-1.683 1.269-2.477zm-13.24-21.199c.6540586-.1640317 1.3256875-.2476495 2-.249 1.8664353.029629 3.6759629.647269 5.171 1.765l-12.59 3.126c.975431-2.3137099 2.9829562-4.0333873 5.419-4.642zm-6.753-3.511c1.1244919-2.2420532 3.2436369-3.81972963 5.714-4.254l-4.531 8.922c-.6044709.7089207-1.114086 1.4935128-1.516 2.334-.879311-2.2768618-.758419-4.8188618.333-7.002zm-15.058 6.609c1.7731086-1.7738198 4.27622287-2.6121409 6.76-2.264 2.4065326.3236809 4.5751511 1.6197919 6 3.586-1.038856-.1723503-2.0972372-.1928981-3.142-.061zm2.944 11.679c-.10744631-2.5452643.96204169-4.9984485 2.9-6.652 1.9462983-1.6109653 4.5299907-2.2275199 6.994-1.669zm12.222-7.668.175-.147 1.133-.281c2.0424468 1.6289542 3.8204896 3.5641907 5.271 5.737-.6816527 1.0292618-1.792016 1.6952592-3.021 1.812-.8022503-2.5458404-2.0031656-4.948346-3.558-7.118zm4.154 9.04c1.3758216-.2234493 2.6358829-.9049254 3.576-1.934 1.6147125 2.7881371 2.8735273 5.7677018 3.747 8.869-1.9275321.0205428-3.8508552.1846637-5.754.491-.3590358-2.5061725-.8831762-4.9859007-1.569-7.423zm7.752 8.928c8.519 0 16.391 2.876 20.988 7.579-.3922281.1926937-.7557175.4390587-1.08.732l-.576.534c-1.092158 1.0044789-2.771842 1.0044789-3.864 0l-.576-.534c-1.8608149-1.7109652-4.7221851-1.7109652-6.583 0l-.577.534c-1.0919714 1.0049573-2.7720286 1.0049573-3.864 0l-.577-.533c-1.8604836-1.7108302-4.7215164-1.7108302-6.582 0l-.577.535c-1.092158 1.0044789-2.771842 1.0044789-3.864 0l-.577-.534c-1.8608149-1.7109652-4.7221851-1.7109652-6.583 0l-.576.534c-1.092158 1.0044789-2.771842 1.0044789-3.864 0l-.576-.534c-.3245377-.2926157-.6879798-.5389486-1.08-.732 4.597-4.705 12.469-7.581 20.988-7.581zm28 16h-56v-3.563l2.868-2.66c1.09215804-1.0044789 2.77184196-1.0044789 3.864 0l.577.535c1.8610012 1.7104874 4.7219988 1.7104874 6.583 0l.576-.535c1.0923443-1.004001 2.7716557-1.004001 3.864 0l.576.535c1.8608149 1.7109652 4.7221851 1.7109652 6.583 0l.577-.535c1.0917845-1.0054363 2.7722155-1.0054363 3.864 0l.577.533c1.8604419 1.7119218 4.7225581 1.7119218 6.583 0l.576-.535c1.0923443-1.004001 2.7716557-1.004001 3.864 0l.576.535c1.8610012 1.7104874 4.7219988 1.7104874 6.583 0l.577-.535c1.0919714-1.0049573 2.7720286-1.0049573 3.864 0l2.868 2.662z"/><path id="Shape" d="m53 0c-4.418278 0-8 3.581722-8 8s3.581722 8 8 8 8-3.581722 8-8c-.0049599-4.41622192-3.5837781-7.99504012-8-8zm0 14c-3.3137085 0-6-2.6862915-6-6s2.6862915-6 6-6 6 2.6862915 6 6c-.0033074 3.3123376-2.6876624 5.9966926-6 6z"/></g></g></g></svg>